<svg width="21" height="19" viewBox="0 0 21 19" fill="none" xmlns="http://www.w3.org/2000/svg">
<path d="M3.49976 18.5H17.4998M10.6248 10.25H10.4998M10.7498 10.25C10.7498 10.3163 10.7234 10.3799 10.6765 10.4268C10.6296 10.4737 10.5661 10.5 10.4998 10.5C10.4335 10.5 10.3699 10.4737 10.323 10.4268C10.2761 10.3799 10.2498 10.3163 10.2498 10.25C10.2498 10.1837 10.2761 10.1201 10.323 10.0732C10.3699 10.0263 10.4335 10 10.4998 10C10.5661 10 10.6296 10.0263 10.6765 10.0732C10.7234 10.1201 10.7498 10.1837 10.7498 10.25Z" stroke="#6EAF91" stroke-linecap="round" stroke-linejoin="round"/>
<path d="M13.4148 5.11L12.3078 2.882C11.5188 1.294 11.1248 0.5 10.4998 0.5C9.87476 0.5 9.48076 1.294 8.69176 2.882L7.58476 5.11C7.07976 6.125 6.82876 6.632 6.37976 6.746C6.34844 6.7542 6.31674 6.76088 6.28476 6.766C5.82676 6.836 5.39876 6.466 4.54376 5.729C2.51176 3.976 1.49676 3.1 0.879765 3.449C0.840072 3.4717 0.801982 3.49709 0.765765 3.525C0.201765 3.955 0.595765 5.241 1.38176 7.815L2.54776 11.628C2.97076 13.012 3.18276 13.704 3.71776 14.102C4.25276 14.5 4.97276 14.5 6.40976 14.5H14.5878C16.0258 14.5 16.7458 14.5 17.2808 14.102C17.8158 13.704 18.0278 13.012 18.4508 11.628L19.6168 7.815C20.4038 5.241 20.7968 3.955 20.2328 3.525C20.1965 3.49709 20.1585 3.4717 20.1188 3.449C19.5018 3.1 18.4868 3.976 16.4548 5.729C15.5998 6.467 15.1718 6.836 14.7138 6.765C14.6818 6.76021 14.6501 6.75386 14.6188 6.746C14.1688 6.632 13.9178 6.125 13.4138 5.111" stroke="#6EAF91" stroke-linecap="round" stroke-linejoin="round"/>
</svg>
