<svg width="32" height="32" viewBox="0 0 32 32" fill="none" xmlns="http://www.w3.org/2000/svg">
<path d="M27.3053 7.65945C26.8623 7.08224 26.2371 6.65139 25.519 6.42827L19.4019 4.50832C17.1836 3.83056 14.7946 3.83056 12.5763 4.50832L6.46049 6.42827C5.74558 6.65295 5.12378 7.08365 4.68307 7.65945C4.23838 8.23777 3.99934 8.93376 4.00014 9.6478V15.8373C3.99082 17.5677 4.45077 19.2717 5.33642 20.7879C6.22207 22.304 7.50408 23.5821 9.06099 24.5011L14.0989 27.4842C14.6705 27.8213 15.3313 28 16.0057 28C16.68 28 17.3408 27.8213 17.9124 27.4842L22.9503 24.5023C24.4967 23.587 25.7711 22.3171 26.6542 20.8115C27.5373 19.3058 28.0003 17.6137 27.9997 15.8937V9.7042C28.0097 8.96956 27.7667 8.25183 27.3053 7.65945ZM17.1938 16.4025V19.1252C17.1938 19.4248 17.0674 19.7122 16.8424 19.9241C16.6175 20.1359 16.3123 20.255 15.9942 20.255C15.676 20.255 15.3709 20.1359 15.1459 19.9241C14.921 19.7122 14.7946 19.4248 14.7946 19.1252V16.4025C13.9377 16.1341 13.2102 15.5873 12.7423 14.8599C12.2744 14.1324 12.0967 13.2719 12.241 12.4324C12.3854 11.5928 12.8423 10.8291 13.5299 10.2779C14.2176 9.72663 15.0912 9.42391 15.9942 9.42391C16.8972 9.42391 17.7708 9.72663 18.4585 10.2779C19.1461 10.8291 19.603 11.5928 19.7473 12.4324C19.8917 13.2719 19.714 14.1324 19.2461 14.8599C18.7782 15.5873 18.0507 16.1341 17.1938 16.4025Z" fill="white" fill-opacity="0.4"/>
</svg>
