<svg preserveAspectRatio="none" width="100%" height="100%" overflow="visible" style="display: block;" viewBox="0 0 32 32" fill="none" xmlns="http://www.w3.org/2000/svg">
<g id="ep:menu">
<path id="Vector" d="M5 14C4.73478 14 4.48043 13.8946 4.29289 13.7071C4.10536 13.5196 4 13.2652 4 13V5C4 4.73478 4.10536 4.48043 4.29289 4.29289C4.48043 4.10536 4.73478 4 5 4H13C13.2652 4 13.5196 4.10536 13.7071 4.29289C13.8946 4.48043 14 4.73478 14 5V13C14 13.2652 13.8946 13.5196 13.7071 13.7071C13.5196 13.8946 13.2652 14 13 14H5ZM19 14C18.7348 14 18.4804 13.8946 18.2929 13.7071C18.1054 13.5196 18 13.2652 18 13V5C18 4.73478 18.1054 4.48043 18.2929 4.29289C18.4804 4.10536 18.7348 4 19 4H27C27.2652 4 27.5196 4.10536 27.7071 4.29289C27.8946 4.48043 28 4.73478 28 5V13C28 13.2652 27.8946 13.5196 27.7071 13.7071C27.5196 13.8946 27.2652 14 27 14H19ZM5 28C4.73478 28 4.48043 27.8946 4.29289 27.7071C4.10536 27.5196 4 27.2652 4 27V19C4 18.7348 4.10536 18.4804 4.29289 18.2929C4.48043 18.1054 4.73478 18 5 18H13C13.2652 18 13.5196 18.1054 13.7071 18.2929C13.8946 18.4804 14 18.7348 14 19V27C14 27.2652 13.8946 27.5196 13.7071 27.7071C13.5196 27.8946 13.2652 28 13 28H5ZM19 28C18.7348 28 18.4804 27.8946 18.2929 27.7071C18.1054 27.5196 18 27.2652 18 27V19C18 18.7348 18.1054 18.4804 18.2929 18.2929C18.4804 18.1054 18.7348 18 19 18H27C27.2652 18 27.5196 18.1054 27.7071 18.2929C27.8946 18.4804 28 18.7348 28 19V27C28 27.2652 27.8946 27.5196 27.7071 27.7071C27.5196 27.8946 27.2652 28 27 28H19Z" fill="var(--fill-0, #D1FFEA)"/>
</g>
</svg>
